<?xml version="1.0" encoding="UTF-8"?>
<!DOCTYPE svg PUBLIC "-//W3C//DTD SVG 1.1//EN" "http://www.w3.org/Graphics/SVG/1.1/DTD/svg11.dtd">
<svg xmlns="http://www.w3.org/2000/svg" version="1.1" width="754px" height="200px" style="shape-rendering:geometricPrecision; text-rendering:geometricPrecision; image-rendering:optimizeQuality; fill-rule:evenodd; clip-rule:evenodd" xmlns:xlink="http://www.w3.org/1999/xlink">
<g><path style="opacity:0.998" fill="#78c2f1" d="M 172.5,58.5 C 172.833,59.1667 173.167,59.8333 173.5,60.5C 173.783,61.2891 174.283,61.9558 175,62.5C 175.499,56.5092 175.666,50.5092 175.5,44.5C 180.682,43.339 186.016,43.339 191.5,44.5C 192.313,56.1207 192.813,67.7874 193,79.5C 202.719,88.6985 211.552,98.0318 219.5,107.5C 210.167,107.5 200.833,107.5 191.5,107.5C 191.5,130.833 191.5,154.167 191.5,177.5C 192.598,178.397 192.598,179.23 191.5,180C 177.833,180.667 164.167,180.667 150.5,180C 148.744,179.798 147.078,179.298 145.5,178.5C 144.193,177.135 144.193,175.802 145.5,174.5C 145.5,156.833 145.5,139.167 145.5,121.5C 134.833,121.5 124.167,121.5 113.5,121.5C 113.5,126.833 113.5,132.167 113.5,137.5C 113.557,151.824 113.557,165.991 113.5,180C 98.8333,180.667 84.1667,180.667 69.5,180C 68.244,179.583 67.5774,178.75 67.5,177.5C 67.5,154.167 67.5,130.833 67.5,107.5C 58.8333,107.5 50.1667,107.5 41.5,107.5C 40.7611,107.631 40.0944,107.464 39.5,107C 69.1396,77.3604 98.8063,47.6937 128.5,18C 129.5,17.3333 130.5,17.3333 131.5,18C 145.035,31.7019 158.701,45.2019 172.5,58.5 Z M 172.5,58.5 C 174.424,58.7107 174.757,59.3774 173.5,60.5C 173.167,59.8333 172.833,59.1667 172.5,58.5 Z"/></g>
<g><path style="opacity:0.18" fill="#e8e9ea" d="M 175.5,44.5 C 175.666,50.5092 175.499,56.5092 175,62.5C 174.283,61.9558 173.783,61.2891 173.5,60.5C 174.757,59.3774 174.424,58.7107 172.5,58.5C 173.891,53.8659 174.891,49.1992 175.5,44.5 Z"/></g>
<g><path style="opacity:0.12" fill="#dbdbdb" d="M 602.5,83.5 C 603.5,83.5 604.5,83.5 605.5,83.5C 605.5,84.8333 605.5,86.1667 605.5,87.5C 602.046,87.7332 601.046,86.3999 602.5,83.5 Z"/></g>
<g><path style="opacity:0.038" fill="#d7d7d7" d="M 630.5,84.5 C 633.293,84.74 633.793,85.74 632,87.5C 630.961,86.7562 630.461,85.7562 630.5,84.5 Z"/></g>
<g><path style="opacity:0.311" fill="#daedd6" d="M 434.5,95.5 C 434.929,101.269 435.929,106.936 437.5,112.5C 436.5,112.5 435.5,112.5 434.5,112.5C 434.5,106.833 434.5,101.167 434.5,95.5 Z"/></g>
<g><path style="opacity:0.63" fill="#badbb3" d="M 547.5,101.5 C 549.487,119.136 550.153,137.136 549.5,155.5C 548.518,152.038 548.185,148.371 548.5,144.5C 546.654,144.778 545.32,144.111 544.5,142.5C 545.32,140.889 546.654,140.222 548.5,140.5C 548.5,132.5 548.5,124.5 548.5,116.5C 548.5,115.167 548.5,113.833 548.5,112.5C 548.756,108.731 548.423,105.064 547.5,101.5 Z"/></g>
<g><path style="opacity:0.618" fill="#b2dbab" d="M 612.5,101.5 C 614.487,119.136 615.153,137.136 614.5,155.5C 613.821,137.598 613.154,119.598 612.5,101.5 Z"/></g>
<g><path style="opacity:0.007" fill="#fefffe" d="M 41.5,107.5 C 50.1667,107.5 58.8333,107.5 67.5,107.5C 67.5,130.833 67.5,154.167 67.5,177.5C 66.5025,154.673 66.1692,131.673 66.5,108.5C 57.9832,108.826 49.6499,108.493 41.5,107.5 Z"/></g>
<g><path style="opacity:0.004" fill="#fefffe" d="M 219.5,107.5 C 210.682,108.493 201.682,108.827 192.5,108.5C 192.831,131.673 192.498,154.673 191.5,177.5C 191.5,154.167 191.5,130.833 191.5,107.5C 200.833,107.5 210.167,107.5 219.5,107.5 Z"/></g>
<g><path style="opacity:0.696" fill="#a7d69f" d="M 311.5,93.5 C 316.64,92.5119 321.974,92.1786 327.5,92.5C 327.5,118.5 327.5,144.5 327.5,170.5C 327.5,171.167 327.167,171.5 326.5,171.5C 326.5,145.5 326.5,119.5 326.5,93.5C 321.5,93.5 316.5,93.5 311.5,93.5 Z"/></g>
<g><path style="opacity:0.323" fill="#e5e5e5" d="M 29.5,111.5 C 32.9103,111.384 34.2436,113.05 33.5,116.5C 29.065,117.078 27.7317,115.411 29.5,111.5 Z"/></g>
<g><path style="opacity:0.236" fill="#e2e2e2" d="M 230.5,111.5 C 235.073,111.976 235.573,113.642 232,116.5C 229.389,115.5 228.889,113.833 230.5,111.5 Z"/></g>
<g><path style="opacity:0.262" fill="#e1e1e1" d="M 348.5,115.5 C 347.833,115.5 347.5,115.833 347.5,116.5C 343.066,115.442 342.733,113.775 346.5,111.5C 348.111,112.32 348.778,113.654 348.5,115.5 Z"/></g>
<g><path style="opacity:0.169" fill="#dedede" d="M 548.5,112.5 C 548.5,113.833 548.5,115.167 548.5,116.5C 544.039,115.952 543.539,114.285 547,111.5C 547.383,112.056 547.883,112.389 548.5,112.5 Z"/></g>
<g><path style="opacity:0.253" fill="#e2e4e1" d="M 663.5,112.5 C 662.761,112.369 662.094,112.536 661.5,113C 662.582,114.33 663.249,115.83 663.5,117.5C 659.471,117.334 658.138,115.501 659.5,112C 661.066,111.235 662.399,111.402 663.5,112.5 Z"/></g>
<g><path style="opacity:0.139" fill="#e4ece3" d="M 405.5,112.5 C 404.517,116.298 404.183,120.298 404.5,124.5C 403.941,120.948 402.941,117.448 401.5,114C 402.289,111.572 403.623,111.072 405.5,112.5 Z"/></g>
<g><path style="opacity:1" fill="#9bcf91" d="M 720.5,113.5 C 720.938,113.435 721.272,113.601 721.5,114C 717.196,123.092 713.196,132.259 709.5,141.5C 709.335,138.482 709.502,135.482 710,132.5C 712.481,130.691 714.315,127.857 715.5,124C 712.833,123.333 712.833,122.667 715.5,122C 713,121.167 712.833,120 715,118.5C 716.131,119.604 716.965,119.271 717.5,117.5C 716.738,115.219 717.738,113.886 720.5,113.5 Z"/></g>
<g><path style="opacity:0.007" fill="#fdfdfd" d="M 145.5,174.5 C 144.503,157.341 144.17,140.008 144.5,122.5C 134.5,122.5 124.5,122.5 114.5,122.5C 114.821,127.695 114.487,132.695 113.5,137.5C 113.5,132.167 113.5,126.833 113.5,121.5C 124.167,121.5 134.833,121.5 145.5,121.5C 145.5,139.167 145.5,156.833 145.5,174.5 Z"/></g>
<g><path style="opacity:1" fill="#81c375" d="M 434.5,95.5 C 434.5,101.167 434.5,106.833 434.5,112.5C 435.5,112.5 436.5,112.5 437.5,112.5C 443.508,111.297 449.508,111.297 455.5,112.5C 455.5,116.5 455.5,120.5 455.5,124.5C 449.167,124.5 442.833,124.5 436.5,124.5C 435.173,128.951 434.506,133.784 434.5,139C 434.501,144.012 434.834,148.845 435.5,153.5C 436.025,156.856 438.025,158.689 441.5,159C 445.821,159.499 450.154,159.666 454.5,159.5C 454.5,163.5 454.5,167.5 454.5,171.5C 447.159,171.666 439.826,171.5 432.5,171C 430.146,170.153 427.812,169.32 425.5,168.5C 422.769,166.929 420.935,164.595 420,161.5C 418.685,149.205 418.185,136.872 418.5,124.5C 413.833,124.5 409.167,124.5 404.5,124.5C 404.183,120.298 404.517,116.298 405.5,112.5C 409.833,112.5 414.167,112.5 418.5,112.5C 418.5,106.833 418.5,101.167 418.5,95.5C 423.833,95.5 429.167,95.5 434.5,95.5 Z"/></g>
<g><path style="opacity:1" fill="#7ec273" d="M 564.5,150.5 C 564.421,153.271 564.921,155.937 566,158.5C 568.141,159.075 570.641,159.408 573.5,159.5C 577.833,159.5 582.167,159.5 586.5,159.5C 586.5,163.5 586.5,167.5 586.5,171.5C 578.493,171.666 570.493,171.5 562.5,171C 560.359,170.427 558.359,169.594 556.5,168.5C 551.826,165.489 549.493,161.155 549.5,155.5C 550.153,137.136 549.487,119.136 547.5,101.5C 542.5,101.5 537.5,101.5 532.5,101.5C 532.5,97.5 532.5,93.5 532.5,89.5C 543.167,89.5 553.833,89.5 564.5,89.5C 564.5,109.833 564.5,130.167 564.5,150.5 Z"/></g>
<g><path style="opacity:0.803" fill="#9bd092" d="M 292.5,122.5 C 291.506,113.014 291.173,103.348 291.5,93.5C 286.833,93.5 282.167,93.5 277.5,93.5C 277.5,119.5 277.5,145.5 277.5,171.5C 276.539,169.735 276.205,167.735 276.5,165.5C 276.5,141.167 276.5,116.833 276.5,92.5C 281.833,92.5 287.167,92.5 292.5,92.5C 292.5,102.5 292.5,112.5 292.5,122.5 Z"/></g>
<g><path style="opacity:0.31" fill="#d6ebd2" d="M 436.5,124.5 C 435.527,134.084 435.194,143.75 435.5,153.5C 434.834,148.845 434.501,144.012 434.5,139C 434.506,133.784 435.173,128.951 436.5,124.5 Z"/></g>
<g><path style="opacity:1" fill="#7dc271" d="M 292.5,122.5 C 298.758,122.81 304.924,122.476 311,121.5C 311.5,112.173 311.666,102.839 311.5,93.5C 316.5,93.5 321.5,93.5 326.5,93.5C 326.5,119.5 326.5,145.5 326.5,171.5C 321.056,172.108 316.056,171.442 311.5,169.5C 311.5,158.833 311.5,148.167 311.5,137.5C 305.021,136.509 298.354,136.176 291.5,136.5C 291.5,148.167 291.5,159.833 291.5,171.5C 286.833,171.5 282.167,171.5 277.5,171.5C 277.5,145.5 277.5,119.5 277.5,93.5C 282.167,93.5 286.833,93.5 291.5,93.5C 291.173,103.348 291.506,113.014 292.5,122.5 Z"/></g>
<g><path style="opacity:1" fill="#7fc273" d="M 523.5,133.5 C 523.5,137.833 523.5,142.167 523.5,146.5C 510.167,146.5 496.833,146.5 483.5,146.5C 483.232,148.099 483.566,149.432 484.5,150.5C 487.401,157.304 492.734,160.637 500.5,160.5C 507.593,159.913 514.259,157.913 520.5,154.5C 521.814,159.652 521.814,164.652 520.5,169.5C 516.603,170.055 512.937,171.055 509.5,172.5C 503.833,172.5 498.167,172.5 492.5,172.5C 491.5,172.5 490.5,172.5 489.5,172.5C 486.244,171.214 482.911,169.88 479.5,168.5C 471.074,161.806 467.074,152.972 467.5,142C 470.154,116.001 484.154,106.334 509.5,113C 518.011,117.184 522.678,124.017 523.5,133.5 Z M 507.5,130.5 C 507.5,131.833 507.5,133.167 507.5,134.5C 500.646,134.176 493.979,134.509 487.5,135.5C 486.448,135.649 485.448,135.483 484.5,135C 486.748,124.917 492.748,121.584 502.5,125C 504.744,126.406 506.41,128.239 507.5,130.5 Z"/></g>
<g><path style="opacity:0.018" fill="#f4faf2" d="M 507.5,130.5 C 508.451,131.919 508.784,133.585 508.5,135.5C 501.5,135.5 494.5,135.5 487.5,135.5C 493.979,134.509 500.646,134.176 507.5,134.5C 507.5,133.167 507.5,131.833 507.5,130.5 Z"/></g>
<g><path style="opacity:1" fill="#7ec272" d="M 629.5,150.5 C 629.421,153.271 629.921,155.937 631,158.5C 633.141,159.075 635.641,159.408 638.5,159.5C 642.833,159.5 647.167,159.5 651.5,159.5C 651.5,163.5 651.5,167.5 651.5,171.5C 643.493,171.666 635.493,171.5 627.5,171C 624.168,170.001 621.168,168.501 618.5,166.5C 615.989,163.302 614.655,159.636 614.5,155.5C 615.153,137.136 614.487,119.136 612.5,101.5C 607.5,101.5 602.5,101.5 597.5,101.5C 597.5,97.5 597.5,93.5 597.5,89.5C 608.167,89.5 618.833,89.5 629.5,89.5C 629.5,109.833 629.5,130.167 629.5,150.5 Z"/></g>
<g><path style="opacity:1" fill="#81c475" d="M 382.5,168.5 C 379.089,169.88 375.756,171.214 372.5,172.5C 371.833,172.5 371.167,172.5 370.5,172.5C 369.833,172.5 369.167,172.5 368.5,172.5C 366.167,172.5 363.833,172.5 361.5,172.5C 360.833,172.5 360.167,172.5 359.5,172.5C 358.833,172.5 358.167,172.5 357.5,172.5C 355.103,170.805 352.437,169.472 349.5,168.5C 341.33,161.647 337.664,152.813 338.5,142C 338.043,132.201 341.043,123.701 347.5,116.5C 348.167,116.5 348.5,116.167 348.5,115.5C 360.854,108.449 372.854,108.949 384.5,117C 392.518,126.729 395.351,137.895 393,150.5C 391.789,157.935 388.289,163.935 382.5,168.5 Z M 362.5,124.5 C 367.126,123.7 370.96,125.034 374,128.5C 376.245,132.887 377.411,137.554 377.5,142.5C 373.5,142.833 373.5,143.167 377.5,143.5C 377.47,149.726 375.136,154.893 370.5,159C 361.465,160.654 356.298,156.821 355,147.5C 353.066,138.185 355.566,130.518 362.5,124.5 Z"/></g>
<g><path style="opacity:0.528" fill="#bce0b6" d="M 523.5,133.5 C 524.486,137.97 524.819,142.637 524.5,147.5C 511.167,147.5 497.833,147.5 484.5,147.5C 484.5,148.5 484.5,149.5 484.5,150.5C 483.566,149.432 483.232,148.099 483.5,146.5C 496.833,146.5 510.167,146.5 523.5,146.5C 523.5,142.167 523.5,137.833 523.5,133.5 Z"/></g>
<g><path style="opacity:0.765" fill="#b6dcae" d="M 311.5,137.5 C 305.167,137.5 298.833,137.5 292.5,137.5C 292.5,148.833 292.5,160.167 292.5,171.5C 292.167,171.5 291.833,171.5 291.5,171.5C 291.5,159.833 291.5,148.167 291.5,136.5C 298.354,136.176 305.021,136.509 311.5,137.5 Z"/></g>
<g><path style="opacity:1" fill="#add8a4" d="M 564.5,150.5 C 565.322,152.389 566.155,154.389 567,156.5C 569.166,157.731 571.333,158.731 573.5,159.5C 570.641,159.408 568.141,159.075 566,158.5C 564.921,155.937 564.421,153.271 564.5,150.5 Z"/></g>
<g><path style="opacity:1" fill="#add8a4" d="M 629.5,150.5 C 630.322,152.389 631.155,154.389 632,156.5C 634.166,157.731 636.333,158.731 638.5,159.5C 635.641,159.408 633.141,159.075 631,158.5C 629.921,155.937 629.421,153.271 629.5,150.5 Z"/></g>
<g><path style="opacity:0.007" fill="#f5e8e5" d="M 349.5,168.5 C 352.437,169.472 355.103,170.805 357.5,172.5C 356.115,173.302 356.282,173.969 358,174.5C 359.03,174.164 359.53,173.497 359.5,172.5C 360.167,172.5 360.833,172.5 361.5,172.5C 362.179,174.814 363.512,175.147 365.5,173.5C 366.298,173.957 366.631,174.624 366.5,175.5C 359.978,175.823 353.645,175.49 347.5,174.5C 347.167,174.5 346.833,174.5 346.5,174.5C 346.672,173.508 346.338,172.842 345.5,172.5C 344.833,172.5 344.167,172.5 343.5,172.5C 343.176,169.32 344.51,168.153 347.5,169C 348.874,172.41 349.541,172.243 349.5,168.5 Z"/></g>
<g><path style="opacity:0.008" fill="#f8f5f2" d="M 479.5,168.5 C 482.911,169.88 486.244,171.214 489.5,172.5C 489.5,173.167 489.5,173.833 489.5,174.5C 489.167,174.5 488.833,174.5 488.5,174.5C 488.38,173.414 487.713,172.747 486.5,172.5C 485.287,172.747 484.62,173.414 484.5,174.5C 484.167,174.5 483.833,174.5 483.5,174.5C 482.081,175.451 480.415,175.784 478.5,175.5C 478.5,175.167 478.5,174.833 478.5,174.5C 478.5,173.833 478.5,173.167 478.5,172.5C 478.875,171.207 479.208,169.874 479.5,168.5 Z"/></g>
<g><path style="opacity:0.224" fill="#e6e6e6" d="M 30.5,168.5 C 33.0838,169.048 34.0838,170.715 33.5,173.5C 28.503,173.779 27.503,172.113 30.5,168.5 Z"/></g>
<g><path style="opacity:0.204" fill="#e7e7e7" d="M 664.5,172.5 C 663.662,172.842 663.328,173.508 663.5,174.5C 663.167,174.5 662.833,174.5 662.5,174.5C 661.817,172.824 660.483,172.157 658.5,172.5C 660.368,167.247 662.368,167.247 664.5,172.5 Z"/></g>
<g><path style="opacity:0.147" fill="#dddddd" d="M 58.5,169.5 C 59.5,169.5 60.5,169.5 61.5,169.5C 61.5,170.833 61.5,172.167 61.5,173.5C 58.4502,173.354 57.4502,172.02 58.5,169.5 Z"/></g>
<g><path style="opacity:0.325" fill="#e0e0e0" d="M 202.5,168.5 C 206.234,169.974 206.4,171.64 203,173.5C 199.927,172.252 199.76,170.585 202.5,168.5 Z"/></g>
<g><path style="opacity:0.007" fill="#fcf1f0" d="M 311.5,169.5 C 316.056,171.442 321.056,172.108 326.5,171.5C 327.167,171.5 327.5,171.167 327.5,170.5C 328.995,170.989 330.329,171.655 331.5,172.5C 329.952,172.821 329.285,173.821 329.5,175.5C 324.637,175.819 319.97,175.486 315.5,174.5C 315.167,174.5 314.833,174.5 314.5,174.5C 313.817,172.824 312.483,172.157 310.5,172.5C 310.5,173.5 310.5,174.5 310.5,175.5C 307.287,175.81 304.287,175.477 301.5,174.5C 303.179,174.715 304.179,174.048 304.5,172.5C 305.167,172.5 305.833,172.5 306.5,172.5C 308.294,171.767 309.961,170.767 311.5,169.5 Z"/></g>
<g><path style="opacity:0.004" fill="#f0f4ef" d="M 382.5,168.5 C 382.119,169.931 381.119,170.764 379.5,171C 380.737,171.232 381.737,171.732 382.5,172.5C 380.821,172.285 379.821,172.952 379.5,174.5C 379.167,174.5 378.833,174.5 378.5,174.5C 378.38,173.414 377.713,172.747 376.5,172.5C 375.287,172.747 374.62,173.414 374.5,174.5C 374.167,174.5 373.833,174.5 373.5,174.5C 373.672,173.508 373.338,172.842 372.5,172.5C 375.756,171.214 379.089,169.88 382.5,168.5 Z"/></g>
<g><path style="opacity:0.206" fill="#e9dfde" d="M 405.5,172.5 C 403.821,172.285 402.821,172.952 402.5,174.5C 400.716,175.72 399.05,175.72 397.5,174.5C 399.179,174.715 400.179,174.048 400.5,172.5C 402.553,167.273 404.219,167.273 405.5,172.5 Z"/></g>
<g><path style="opacity:0.26" fill="#e8dedd" d="M 463.5,172.5 C 462.957,172.56 462.624,172.893 462.5,173.5C 463.325,174.386 464.325,174.719 465.5,174.5C 463.95,175.72 462.284,175.72 460.5,174.5C 460.179,172.952 459.179,172.285 457.5,172.5C 459.543,167.193 461.543,167.193 463.5,172.5 Z"/></g>
<g><path style="opacity:0.245" fill="#e8dedd" d="M 549.5,172.5 C 549.821,174.048 550.821,174.715 552.5,174.5C 550.95,175.72 549.284,175.72 547.5,174.5C 547.179,172.952 546.179,172.285 544.5,172.5C 545.827,167.3 547.493,167.3 549.5,172.5 Z"/></g>
<g><path style="opacity:0.206" fill="#ebd7d5" d="M 721.5,172.5 C 719.821,172.285 718.821,172.952 718.5,174.5C 716.958,175.301 715.292,175.634 713.5,175.5C 714.353,172.637 716.02,170.304 718.5,168.5C 719.984,169.467 720.984,170.8 721.5,172.5 Z"/></g>
<g><path style="opacity:0.005" fill="#fbe9e7" d="M 276.5,165.5 C 276.205,167.735 276.539,169.735 277.5,171.5C 282.167,171.5 286.833,171.5 291.5,171.5C 291.833,171.5 292.167,171.5 292.5,171.5C 293.791,171.263 294.791,171.596 295.5,172.5C 295.833,172.5 296.167,172.5 296.5,172.5C 296.557,173.609 296.89,174.609 297.5,175.5C 287.985,175.827 278.652,175.494 269.5,174.5C 271.179,174.715 272.179,174.048 272.5,172.5C 273.167,172.5 273.833,172.5 274.5,172.5C 275.065,170.048 275.732,167.715 276.5,165.5 Z"/></g>
<g><path style="opacity:0.007" fill="#f5e7e0" d="M 454.5,159.5 C 454.865,164.094 455.865,168.427 457.5,172.5C 457.5,173.167 457.5,173.833 457.5,174.5C 447.833,175.833 438.167,175.833 428.5,174.5C 428.179,172.952 427.179,172.285 425.5,172.5C 426.263,171.732 427.263,171.232 428.5,171C 427.058,170.623 426.058,169.79 425.5,168.5C 427.812,169.32 430.146,170.153 432.5,171C 439.826,171.5 447.159,171.666 454.5,171.5C 454.5,167.5 454.5,163.5 454.5,159.5 Z"/></g>
<g><path style="opacity:0.094" fill="#ebeae4" d="M 520.5,169.5 C 520.5,170.5 520.5,171.5 520.5,172.5C 518.517,172.157 517.183,172.824 516.5,174.5C 516.167,174.5 515.833,174.5 515.5,174.5C 514.081,175.451 512.415,175.784 510.5,175.5C 510.737,174.209 510.404,173.209 509.5,172.5C 512.937,171.055 516.603,170.055 520.5,169.5 Z"/></g>
<g><path style="opacity:0.009" fill="#fbeae8" d="M 556.5,168.5 C 558.359,169.594 560.359,170.427 562.5,171C 570.493,171.5 578.493,171.666 586.5,171.5C 587.167,171.5 587.5,171.833 587.5,172.5C 585.295,172.846 585.128,173.513 587,174.5C 588.03,174.164 588.53,173.497 588.5,172.5C 589.167,172.5 589.833,172.5 590.5,172.5C 590.821,174.048 591.821,174.715 593.5,174.5C 587.355,175.49 581.022,175.823 574.5,175.5C 576.137,173.876 575.803,172.876 573.5,172.5C 571.197,172.876 570.863,173.876 572.5,175.5C 568.958,175.813 565.625,175.479 562.5,174.5C 562.167,174.5 561.833,174.5 561.5,174.5C 558.833,175.833 556.167,175.833 553.5,174.5C 555.179,174.715 556.179,174.048 556.5,172.5C 557.354,171.368 557.354,170.035 556.5,168.5 Z"/></g>
<g><path style="opacity:0.841" fill="#f0796b" d="M 272.5,172.5 C 272.179,174.048 271.179,174.715 269.5,174.5C 269.821,172.952 270.821,172.285 272.5,172.5 Z"/></g>
<g><path style="opacity:0.876" fill="#f0796c" d="M 306.5,172.5 C 307.675,172.281 308.675,172.614 309.5,173.5C 307.948,174.798 306.948,174.465 306.5,172.5 Z"/></g>
<g><path style="opacity:0.896" fill="#f0786a" d="M 324.5,172.5 C 325.675,172.281 326.675,172.614 327.5,173.5C 325.948,174.798 324.948,174.465 324.5,172.5 Z"/></g>
<g><path style="opacity:0.892" fill="#f17b6d" d="M 357.5,172.5 C 358.167,172.5 358.833,172.5 359.5,172.5C 359.53,173.497 359.03,174.164 358,174.5C 356.282,173.969 356.115,173.302 357.5,172.5 Z"/></g>
<g><path style="opacity:0.886" fill="#d89c7e" d="M 361.5,172.5 C 363.833,172.5 366.167,172.5 368.5,172.5C 368.5,173.5 368.5,174.5 368.5,175.5C 367.833,175.5 367.167,175.5 366.5,175.5C 366.631,174.624 366.298,173.957 365.5,173.5C 363.512,175.147 362.179,174.814 361.5,172.5 Z"/></g>
<g><path style="opacity:0.884" fill="#f07668" d="M 382.5,172.5 C 382.179,174.048 381.179,174.715 379.5,174.5C 379.821,172.952 380.821,172.285 382.5,172.5 Z"/></g>
<g><path style="opacity:0.843" fill="#f9a094" d="M 423.5,172.5 C 423.5,173.5 423.5,174.5 423.5,175.5C 422.041,175.567 420.708,175.234 419.5,174.5C 417.821,174.715 416.821,174.048 416.5,172.5C 419.041,172.15 421.374,172.15 423.5,172.5 Z"/></g>
<g><path style="opacity:0.01" fill="#fde4e2" d="M 423.5,172.5 C 424.167,172.5 424.833,172.5 425.5,172.5C 425.821,174.048 426.821,174.715 428.5,174.5C 427.081,175.451 425.415,175.784 423.5,175.5C 423.5,174.5 423.5,173.5 423.5,172.5 Z"/></g>
<g><path style="opacity:0.92" fill="#f1796b" d="M 448.5,172.5 C 449.675,172.281 450.675,172.614 451.5,173.5C 449.948,174.798 448.948,174.465 448.5,172.5 Z"/></g>
<g><path style="opacity:0.912" fill="#f07668" d="M 483.5,174.5 C 482.325,174.719 481.325,174.386 480.5,173.5C 482.052,172.202 483.052,172.535 483.5,174.5 Z"/></g>
<g><path style="opacity:0.918" fill="#f17c6e" d="M 561.5,174.5 C 560.325,174.719 559.325,174.386 558.5,173.5C 560.052,172.202 561.052,172.535 561.5,174.5 Z"/></g>
<g><path style="opacity:0.843" fill="#f07669" d="M 664.5,172.5 C 665.167,172.5 665.833,172.5 666.5,172.5C 666.179,174.048 665.179,174.715 663.5,174.5C 663.328,173.508 663.662,172.842 664.5,172.5 Z"/></g>
<g><path style="opacity:0.845" fill="#f8a094" d="M 675.5,172.5 C 675.5,173.5 675.5,174.5 675.5,175.5C 674.041,175.567 672.708,175.234 671.5,174.5C 669.821,174.715 668.821,174.048 668.5,172.5C 671.041,172.15 673.374,172.15 675.5,172.5 Z"/></g>
<g><path style="opacity:0.849" fill="#f07769" d="M 677.5,172.5 C 678.5,172.5 679.5,172.5 680.5,172.5C 680.5,173.167 680.5,173.833 680.5,174.5C 678.821,174.715 677.821,174.048 677.5,172.5 Z"/></g>
<g><path style="opacity:0.851" fill="#f17d70" d="M 274.5,172.5 C 275.675,172.281 276.675,172.614 277.5,173.5C 275.948,174.798 274.948,174.465 274.5,172.5 Z"/></g>
<g><path style="opacity:0.714" fill="#f28578" d="M 278.5,172.5 C 279.675,172.281 280.675,172.614 281.5,173.5C 279.948,174.798 278.948,174.465 278.5,172.5 Z"/></g>
<g><path style="opacity:1" fill="#ee6656" d="M 283.5,172.5 C 284.675,172.281 285.675,172.614 286.5,173.5C 284.948,174.798 283.948,174.465 283.5,172.5 Z"/></g>
<g><path style="opacity:1" fill="#eb5e4e" d="M 288.5,172.5 C 290.337,172.639 290.67,173.306 289.5,174.5C 288.702,174.043 288.369,173.376 288.5,172.5 Z"/></g>
<g><path style="opacity:1" fill="#ee6656" d="M 295.5,172.5 C 295.052,174.465 294.052,174.798 292.5,173.5C 293.325,172.614 294.325,172.281 295.5,172.5 Z"/></g>
<g><path style="opacity:0.698" fill="#f8a196" d="M 296.5,172.5 C 299.167,172.5 301.833,172.5 304.5,172.5C 304.179,174.048 303.179,174.715 301.5,174.5C 300.292,175.234 298.959,175.567 297.5,175.5C 296.89,174.609 296.557,173.609 296.5,172.5 Z"/></g>
<g><path style="opacity:1" fill="#ec6354" d="M 315.5,174.5 C 315.948,172.535 316.948,172.202 318.5,173.5C 317.675,174.386 316.675,174.719 315.5,174.5 Z"/></g>
<g><path style="opacity:0.639" fill="#f6988c" d="M 319.5,172.5 C 320.978,172.238 322.311,172.571 323.5,173.5C 322.833,173.833 322.167,174.167 321.5,174.5C 320.287,174.253 319.62,173.586 319.5,172.5 Z"/></g>
<g><path style="opacity:1" fill="#ee6555" d="M 347.5,174.5 C 347.948,172.535 348.948,172.202 350.5,173.5C 349.675,174.386 348.675,174.719 347.5,174.5 Z"/></g>
<g><path style="opacity:0.722" fill="#f3877a" d="M 352.5,172.5 C 353.675,172.281 354.675,172.614 355.5,173.5C 353.948,174.798 352.948,174.465 352.5,172.5 Z"/></g>
<g><path style="opacity:0.006" fill="#f8e5e0" d="M 368.5,172.5 C 369.167,172.5 369.833,172.5 370.5,172.5C 370.821,174.048 371.821,174.715 373.5,174.5C 372.081,175.451 370.415,175.784 368.5,175.5C 368.5,174.5 368.5,173.5 368.5,172.5 Z"/></g>
<g><path style="opacity:1" fill="#ed6556" d="M 370.5,172.5 C 371.167,172.5 371.833,172.5 372.5,172.5C 373.338,172.842 373.672,173.508 373.5,174.5C 371.821,174.715 370.821,174.048 370.5,172.5 Z"/></g>
<g><path style="opacity:0.784" fill="#f59083" d="M 387.5,172.5 C 386.5,175.167 385.5,175.167 384.5,172.5C 385.348,171.375 386.348,171.375 387.5,172.5 Z"/></g>
<g><path style="opacity:0.8" fill="#f89a8d" d="M 391.5,172.5 C 390.5,175.167 389.5,175.167 388.5,172.5C 389.348,171.375 390.348,171.375 391.5,172.5 Z"/></g>
<g><path style="opacity:0.573" fill="#f89c8f" d="M 393.5,172.5 C 395.833,172.5 398.167,172.5 400.5,172.5C 400.179,174.048 399.179,174.715 397.5,174.5C 397.167,174.5 396.833,174.5 396.5,174.5C 394.821,174.715 393.821,174.048 393.5,172.5 Z"/></g>
<g><path style="opacity:1" fill="#f17b6c" d="M 405.5,172.5 C 405.5,173.167 405.5,173.833 405.5,174.5C 404.5,175.833 403.5,175.833 402.5,174.5C 402.821,172.952 403.821,172.285 405.5,172.5 Z"/></g>
<g><path style="opacity:0.357" fill="#fbd7d4" d="M 405.5,172.5 C 406.167,172.5 406.833,172.5 407.5,172.5C 407.821,174.048 408.821,174.715 410.5,174.5C 408.95,175.72 407.284,175.72 405.5,174.5C 405.5,173.833 405.5,173.167 405.5,172.5 Z"/></g>
<g><path style="opacity:0.608" fill="#f79689" d="M 407.5,172.5 C 409.833,172.5 412.167,172.5 414.5,172.5C 414.179,174.048 413.179,174.715 411.5,174.5C 411.167,174.5 410.833,174.5 410.5,174.5C 408.821,174.715 407.821,174.048 407.5,172.5 Z"/></g>
<g><path style="opacity:1" fill="#ee6656" d="M 425.5,172.5 C 427.179,172.285 428.179,172.952 428.5,174.5C 426.821,174.715 425.821,174.048 425.5,172.5 Z"/></g>
<g><path style="opacity:1" fill="#eb5d4e" d="M 430.5,172.5 C 432.337,172.639 432.67,173.306 431.5,174.5C 430.702,174.043 430.369,173.376 430.5,172.5 Z"/></g>
<g><path style="opacity:1" fill="#ee6657" d="M 434.5,172.5 C 435.675,172.281 436.675,172.614 437.5,173.5C 435.948,174.798 434.948,174.465 434.5,172.5 Z"/></g>
<g><path style="opacity:0.725" fill="#f38578" d="M 439.5,172.5 C 440.675,172.281 441.675,172.614 442.5,173.5C 440.948,174.798 439.948,174.465 439.5,172.5 Z"/></g>
<g><path style="opacity:0.871" fill="#f17d70" d="M 443.5,172.5 C 444.675,172.281 445.675,172.614 446.5,173.5C 444.948,174.798 443.948,174.465 443.5,172.5 Z"/></g>
<g><path style="opacity:1" fill="#f27d6e" d="M 457.5,172.5 C 459.179,172.285 460.179,172.952 460.5,174.5C 459.5,175.833 458.5,175.833 457.5,174.5C 457.5,173.833 457.5,173.167 457.5,172.5 Z"/></g>
<g><path style="opacity:0.573" fill="#f7978a" d="M 463.5,172.5 C 465.5,172.5 467.5,172.5 469.5,172.5C 469.179,174.048 468.179,174.715 466.5,174.5C 466.167,174.5 465.833,174.5 465.5,174.5C 464.325,174.719 463.325,174.386 462.5,173.5C 462.624,172.893 462.957,172.56 463.5,172.5 Z"/></g>
<g><path style="opacity:0.749" fill="#fcc3bb" d="M 478.5,172.5 C 475.833,173.167 475.833,173.833 478.5,174.5C 478.5,174.833 478.5,175.167 478.5,175.5C 474.474,175.503 470.474,175.169 466.5,174.5C 468.179,174.715 469.179,174.048 469.5,172.5C 472.719,172.094 475.719,172.094 478.5,172.5 Z"/></g>
<g><path style="opacity:1" fill="#ee6050" d="M 478.5,172.5 C 478.5,173.167 478.5,173.833 478.5,174.5C 475.833,173.833 475.833,173.167 478.5,172.5 Z"/></g>
<g><path style="opacity:1" fill="#ec6455" d="M 489.5,172.5 C 490.5,172.5 491.5,172.5 492.5,172.5C 492.179,174.048 491.179,174.715 489.5,174.5C 489.5,173.833 489.5,173.167 489.5,172.5 Z"/></g>
<g><path style="opacity:0.306" fill="#f0bbab" d="M 492.5,172.5 C 498.167,172.5 503.833,172.5 509.5,172.5C 510.404,173.209 510.737,174.209 510.5,175.5C 503.313,175.825 496.313,175.491 489.5,174.5C 491.179,174.715 492.179,174.048 492.5,172.5 Z"/></g>
<g><path style="opacity:1" fill="#ee6556" d="M 515.5,174.5 C 514.325,174.719 513.325,174.386 512.5,173.5C 514.052,172.202 515.052,172.535 515.5,174.5 Z"/></g>
<g><path style="opacity:0.533" fill="#f9ada2" d="M 520.5,172.5 C 524.833,172.5 529.167,172.5 533.5,172.5C 533.5,173.5 533.5,174.5 533.5,175.5C 527.64,175.715 521.973,175.382 516.5,174.5C 517.183,172.824 518.517,172.157 520.5,172.5 Z"/></g>
<g><path style="opacity:0.075" fill="#fce3e1" d="M 533.5,172.5 C 534.167,172.5 534.833,172.5 535.5,172.5C 535.821,174.048 536.821,174.715 538.5,174.5C 537.081,175.451 535.415,175.784 533.5,175.5C 533.5,174.5 533.5,173.5 533.5,172.5 Z"/></g>
<g><path style="opacity:1" fill="#f17c6c" d="M 544.5,172.5 C 546.179,172.285 547.179,172.952 547.5,174.5C 546.5,175.833 545.5,175.833 544.5,174.5C 544.5,173.833 544.5,173.167 544.5,172.5 Z"/></g>
<g><path style="opacity:0.612" fill="#f79689" d="M 549.5,172.5 C 551.833,172.5 554.167,172.5 556.5,172.5C 556.179,174.048 555.179,174.715 553.5,174.5C 553.167,174.5 552.833,174.5 552.5,174.5C 550.821,174.715 549.821,174.048 549.5,172.5 Z"/></g>
<g><path style="opacity:0.718" fill="#f38679" d="M 562.5,174.5 C 562.948,172.535 563.948,172.202 565.5,173.5C 564.675,174.386 563.675,174.719 562.5,174.5 Z"/></g>
<g><path style="opacity:1" fill="#ee6556" d="M 567.5,172.5 C 568.675,172.281 569.675,172.614 570.5,173.5C 568.948,174.798 567.948,174.465 567.5,172.5 Z"/></g>
<g><path style="opacity:0.557" fill="#f39d92" d="M 574.5,175.5 C 573.833,175.5 573.167,175.5 572.5,175.5C 570.863,173.876 571.197,172.876 573.5,172.5C 575.803,172.876 576.137,173.876 574.5,175.5 Z"/></g>
<g><path style="opacity:1" fill="#ee6657" d="M 576.5,172.5 C 577.675,172.281 578.675,172.614 579.5,173.5C 577.948,174.798 576.948,174.465 576.5,172.5 Z"/></g>
<g><path style="opacity:0.722" fill="#f38477" d="M 581.5,172.5 C 582.675,172.281 583.675,172.614 584.5,173.5C 582.948,174.798 581.948,174.465 581.5,172.5 Z"/></g>
<g><path style="opacity:0.851" fill="#f27e71" d="M 587.5,172.5 C 587.833,172.5 588.167,172.5 588.5,172.5C 588.53,173.497 588.03,174.164 587,174.5C 585.128,173.513 585.295,172.846 587.5,172.5 Z"/></g>
<g><path style="opacity:0.584" fill="#f9a397" d="M 601.5,172.5 C 602.338,172.842 602.672,173.508 602.5,174.5C 599.755,175.209 596.755,175.209 593.5,174.5C 591.821,174.715 590.821,174.048 590.5,172.5C 593.931,171.631 597.597,171.631 601.5,172.5 Z"/></g>
<g><path style="opacity:0.424" fill="#f9b3a9" d="M 658.5,172.5 C 660.483,172.157 661.817,172.824 662.5,174.5C 660.95,175.72 659.284,175.72 657.5,174.5C 655.821,174.715 654.821,174.048 654.5,172.5C 655.632,171.646 656.965,171.646 658.5,172.5 Z"/></g>
<g><path style="opacity:0.067" fill="#fbddd9" d="M 666.5,172.5 C 667.167,172.5 667.833,172.5 668.5,172.5C 668.821,174.048 669.821,174.715 671.5,174.5C 668.833,175.833 666.167,175.833 663.5,174.5C 665.179,174.715 666.179,174.048 666.5,172.5 Z"/></g>
<g><path style="opacity:0.769" fill="#f5d7cf" d="M 683.5,170.5 C 683.34,172.153 682.674,173.486 681.5,174.5C 681.167,174.5 680.833,174.5 680.5,174.5C 680.5,173.833 680.5,173.167 680.5,172.5C 681.5,171.833 682.5,171.167 683.5,170.5 Z"/></g>
<g><path style="opacity:0.69" fill="#fab9af" d="M 709.5,172.5 C 709.5,173.167 709.5,173.833 709.5,174.5C 705.279,174.59 700.946,175.256 696.5,176.5C 696.66,174.847 697.326,173.514 698.5,172.5C 701.988,172.205 705.654,172.205 709.5,172.5 Z"/></g>
<g><path style="opacity:1" fill="#f37e6e" d="M 709.5,172.5 C 710.5,172.5 711.5,172.5 712.5,172.5C 712.5,173.5 712.5,174.5 712.5,175.5C 711.209,175.737 710.209,175.404 709.5,174.5C 709.5,173.833 709.5,173.167 709.5,172.5 Z"/></g>
<g><path style="opacity:1" fill="#f79182" d="M 721.5,172.5 C 722.774,173.189 722.774,174.023 721.5,175C 720.251,175.74 719.251,175.573 718.5,174.5C 718.821,172.952 719.821,172.285 721.5,172.5 Z"/></g>
<g><path style="opacity:0.325" fill="#f9b5ac" d="M 314.5,174.5 C 313.432,175.434 312.099,175.768 310.5,175.5C 310.5,174.5 310.5,173.5 310.5,172.5C 312.483,172.157 313.817,172.824 314.5,174.5 Z"/></g>
<g><path style="opacity:0.339" fill="#fabdb5" d="M 343.5,172.5 C 344.167,175.167 344.833,175.167 345.5,172.5C 346.338,172.842 346.672,173.508 346.5,174.5C 341.19,175.185 335.524,175.518 329.5,175.5C 329.285,173.821 329.952,172.821 331.5,172.5C 335.6,171.995 339.6,171.995 343.5,172.5 Z"/></g>
<g><path style="opacity:1" fill="#ec5e4f" d="M 343.5,172.5 C 344.167,172.5 344.833,172.5 345.5,172.5C 344.833,175.167 344.167,175.167 343.5,172.5 Z"/></g>
<g><path style="opacity:0.324" fill="#f7b5ad" d="M 378.5,174.5 C 377.167,175.833 375.833,175.833 374.5,174.5C 374.62,173.414 375.287,172.747 376.5,172.5C 377.713,172.747 378.38,173.414 378.5,174.5 Z"/></g>
<g><path style="opacity:0.404" fill="#fbdbd7" d="M 382.5,172.5 C 383.167,172.5 383.833,172.5 384.5,172.5C 385.5,175.167 386.5,175.167 387.5,172.5C 387.833,172.5 388.167,172.5 388.5,172.5C 389.5,175.167 390.5,175.167 391.5,172.5C 392.167,172.5 392.833,172.5 393.5,172.5C 393.821,174.048 394.821,174.715 396.5,174.5C 390.833,175.833 385.167,175.833 379.5,174.5C 381.179,174.715 382.179,174.048 382.5,172.5 Z"/></g>
<g><path style="opacity:0.067" fill="#fbddda" d="M 414.5,172.5 C 415.167,172.5 415.833,172.5 416.5,172.5C 416.821,174.048 417.821,174.715 419.5,174.5C 416.833,175.833 414.167,175.833 411.5,174.5C 413.179,174.715 414.179,174.048 414.5,172.5 Z"/></g>
<g><path style="opacity:0.3" fill="#f8b6ad" d="M 488.5,174.5 C 487.167,175.833 485.833,175.833 484.5,174.5C 484.62,173.414 485.287,172.747 486.5,172.5C 487.713,172.747 488.38,173.414 488.5,174.5 Z"/></g>
<g><path style="opacity:0.392" fill="#fbbcb3" d="M 535.5,172.5 C 538.5,172.5 541.5,172.5 544.5,172.5C 544.5,173.167 544.5,173.833 544.5,174.5C 542.5,175.833 540.5,175.833 538.5,174.5C 536.821,174.715 535.821,174.048 535.5,172.5 Z"/></g>
<g><path style="opacity:0.071" fill="#f8dbd7" d="M 618.5,166.5 C 621.168,168.501 624.168,170.001 627.5,171C 635.493,171.5 643.493,171.666 651.5,171.5C 651.5,171.833 651.5,172.167 651.5,172.5C 649.295,172.846 649.128,173.513 651,174.5C 652.03,174.164 652.53,173.497 652.5,172.5C 653.167,172.5 653.833,172.5 654.5,172.5C 654.821,174.048 655.821,174.715 657.5,174.5C 648.733,176.697 640.067,176.697 631.5,174.5C 629.5,175.833 627.5,175.833 625.5,174.5C 618.082,175.385 610.415,175.385 602.5,174.5C 602.672,173.508 602.338,172.842 601.5,172.5C 601.147,170.365 601.98,169.032 604,168.5C 605.58,169.8 607.08,171.134 608.5,172.5C 609.5,175.167 610.5,175.167 611.5,172.5C 614.541,172.473 617.541,172.473 620.5,172.5C 621.043,172.44 621.376,172.107 621.5,171.5C 620.74,169.64 619.74,167.973 618.5,166.5 Z"/></g>
<g><path style="opacity:0.682" fill="#f3897c" d="M 651.5,172.5 C 651.833,172.5 652.167,172.5 652.5,172.5C 652.53,173.497 652.03,174.164 651,174.5C 649.128,173.513 649.295,172.846 651.5,172.5 Z"/></g>
<g><path style="opacity:0.714" fill="#f38679" d="M 636.5,172.5 C 637.675,172.281 638.675,172.614 639.5,173.5C 637.948,174.798 636.948,174.465 636.5,172.5 Z"/></g>
<g><path style="opacity:1" fill="#ec6254" d="M 631.5,174.5 C 631.948,172.535 632.948,172.202 634.5,173.5C 633.675,174.386 632.675,174.719 631.5,174.5 Z"/></g>
<g><path style="opacity:1" fill="#ed6050" d="M 620.5,172.5 C 620.361,174.337 619.694,174.67 618.5,173.5C 618.957,172.702 619.624,172.369 620.5,172.5 Z"/></g>
<g><path style="opacity:0.833" fill="#f17a6c" d="M 645.5,172.5 C 646.675,172.281 647.675,172.614 648.5,173.5C 646.948,174.798 645.948,174.465 645.5,172.5 Z"/></g>
<g><path style="opacity:0.861" fill="#f17b6e" d="M 640.5,172.5 C 641.675,172.281 642.675,172.614 643.5,173.5C 641.948,174.798 640.948,174.465 640.5,172.5 Z"/></g>
<g><path style="opacity:0.906" fill="#f07667" d="M 625.5,174.5 C 624.325,174.719 623.325,174.386 622.5,173.5C 624.052,172.202 625.052,172.535 625.5,174.5 Z"/></g>
<g><path style="opacity:0.827" fill="#f58a7c" d="M 611.5,172.5 C 610.5,175.167 609.5,175.167 608.5,172.5C 609.5,171.167 610.5,171.167 611.5,172.5 Z"/></g>
<g><path style="opacity:0.02" fill="#fce4e1" d="M 675.5,172.5 C 676.167,172.5 676.833,172.5 677.5,172.5C 677.821,174.048 678.821,174.715 680.5,174.5C 680.5,174.833 680.5,175.167 680.5,175.5C 678.833,175.5 677.167,175.5 675.5,175.5C 675.5,174.5 675.5,173.5 675.5,172.5 Z"/></g>
<g><path style="opacity:0.094" fill="#ecf6ea" d="M 680.5,175.5 C 680.833,175.5 681.167,175.5 681.5,175.5C 681.573,177.027 680.906,178.027 679.5,178.5C 679.557,177.391 679.89,176.391 680.5,175.5 Z"/></g>
<g><path style="opacity:1" fill="#80c374" d="M 720.5,113.5 C 717.738,113.886 716.738,115.219 717.5,117.5C 716.965,119.271 716.131,119.604 715,118.5C 712.833,120 713,121.167 715.5,122C 712.833,122.667 712.833,123.333 715.5,124C 714.315,127.857 712.481,130.691 710,132.5C 709.502,135.482 709.335,138.482 709.5,141.5C 706.116,151.934 702.449,162.268 698.5,172.5C 697.326,173.514 696.66,174.847 696.5,176.5C 695.273,182.12 692.606,186.953 688.5,191C 686.35,192.411 684.016,193.245 681.5,193.5C 676.167,193.5 670.833,193.5 665.5,193.5C 665.5,189.833 665.5,186.167 665.5,182.5C 668.85,182.665 672.183,182.498 675.5,182C 676.416,181.722 677.082,181.222 677.5,180.5C 677.833,179.5 678.5,178.833 679.5,178.5C 680.906,178.027 681.573,177.027 681.5,175.5C 681.5,175.167 681.5,174.833 681.5,174.5C 682.674,173.486 683.34,172.153 683.5,170.5C 676.549,152.933 669.882,135.266 663.5,117.5C 663.249,115.83 662.582,114.33 661.5,113C 662.094,112.536 662.761,112.369 663.5,112.5C 668.544,112.173 673.544,112.506 678.5,113.5C 681.902,122.04 684.902,130.707 687.5,139.5C 688.264,142.018 689.264,144.351 690.5,146.5C 690.369,147.239 690.536,147.906 691,148.5C 695.462,136.947 699.629,125.281 703.5,113.5C 708.493,112.732 713.493,112.065 718.5,111.5C 719.713,111.747 720.38,112.414 720.5,113.5 Z"/></g>
<g><path style="opacity:0.212" fill="#dee0dd" d="M 687.5,139.5 C 688.708,140.234 690.041,140.567 691.5,140.5C 691.483,142.565 691.15,144.565 690.5,146.5C 691.15,144.565 691.483,142.565 691.5,140.5C 690.041,140.567 688.708,140.234 687.5,139.5 Z"/></g>
<g><path style="opacity:0.304" fill="#d7ecd3" d="M 677.5,180.5 C 677.082,181.222 676.416,181.722 675.5,182C 672.183,182.498 668.85,182.665 665.5,182.5C 665.5,186.167 665.5,189.833 665.5,193.5C 670.833,193.5 676.167,193.5 681.5,193.5C 676.025,194.489 670.358,194.822 664.5,194.5C 664.5,190.167 664.5,185.833 664.5,181.5C 668.869,181.533 673.202,181.2 677.5,180.5 Z"/></g>
<g><path style="opacity:0.016" fill="#eaeaea" d="M 663.5,199.5 C 662.833,199.5 662.167,199.5 661.5,199.5C 660.939,196.813 661.606,196.813 663.5,199.5 Z"/></g>
</svg>
